<?xml version="1.0" encoding="UTF-8"?><svg xmlns="http://www.w3.org/2000/svg" viewBox="0 17 1080 483" xmlns:latexdraw="http://latexdraw.sourceforge.net/namespaces/latexdraw" version="1.1" baseProfile="full">
    <g>
        <g latexdraw:type="akinPoints" id="id1918172535" latexdraw:pathType="CURVES" latexdraw:interval="5" latexdraw:points="240.0 120.0 ">
            <path d="M 240.0 120.0" stroke="black" stroke-width="2.0" fill="none"/>
        </g>
        <g latexdraw:type="akinPoints" id="id2129086524" latexdraw:pathType="CURVES" latexdraw:interval="5" latexdraw:points="120.0 160.0 160.0 180.0 300.0 200.0 400.0 180.0 ">
            <path d="M 120.0 160.0" stroke="black" stroke-width="2.0" fill="none"/>
        </g>
        <g latexdraw:type="akinPoints" id="id834581932" latexdraw:pathType="CURVES" latexdraw:interval="5" latexdraw:points="280.0 200.0 220.0 240.0 240.0 280.0 260.0 300.0 380.0 280.0 ">
            <path d="M 280.0 200.0" stroke="black" stroke-width="2.0" fill="none"/>
        </g>
        <g latexdraw:type="akinPoints" id="id1514969181" latexdraw:pathType="CURVES" latexdraw:interval="5" latexdraw:points="360.0 280.0 260.0 300.0 180.0 280.0 ">
            <path d="M 360.0 280.0" stroke="black" stroke-width="2.0" fill="none"/>
        </g>
        <g latexdraw:type="joinedLines" id="id796830309">
            <polyline points="20.0,60.0 20.0,480.0 1060.0,480.0 1060.0,60.0 20.0,60.0 20.0,60.0 " stroke="black" stroke-width="2.0" fill="none" latexdraw:rotationAngle="0.0"/>
        </g>
        <g latexdraw:type="joinedLines" id="id983795664">
            <polyline points="1060.0,280.0 20.0,280.0 20.0,280.0 " stroke="black" stroke-width="2.0" fill="none" latexdraw:rotationAngle="0.0"/>
        </g>
        <g latexdraw:type="joinedLines" id="id989291041">
            <polyline points="540.0,60.0 540.0,480.0 540.0,480.0 " stroke="black" stroke-width="2.0" fill="none" latexdraw:rotationAngle="0.0"/>
        </g>
        <g latexdraw:type="joinedLines" id="id973671047">
            <polyline points="800.0,60.0 800.0,480.0 800.0,480.0 " stroke="black" stroke-width="2.0" fill="none" latexdraw:rotationAngle="0.0"/>
        </g>
        <g latexdraw:type="joinedLines" id="id964070181">
            <polyline points="280.0,60.0 280.0,60.0 280.0,480.0 20.0,280.0 280.0,60.0 540.0,280.0 800.0,60.0 1060.0,280.0 800.0,480.0 540.0,280.0 280.0,480.0 280.0,480.0 " stroke="black" stroke-width="2.0" fill="none" latexdraw:rotationAngle="0.0"/>
        </g>
        <g latexdraw:type="dot" id="id315196368" latexdraw:size="20.0" latexdraw:dotShape="*" latexdraw:position="540.0 62.0">
            <ellipse cx="540.0" cy="62.0" rx="9.23076923076923" ry="9.23076923076923" stroke-width="1.25" stroke-linecap="square" stroke="black" fill="black"/>
        </g>
        <g latexdraw:type="text" id="id681233885" fill="black" latexdraw:position="bl">
            <text x="529.0" y="37.0">\huge$\mathbf{x_e}$</text>
        </g>
        <g latexdraw:type="text" id="id1169108399" fill="black" latexdraw:position="bl">
            <text x="154.0" y="207.0">\huge$\mathbf{x_s}$</text>
        </g>
        <g latexdraw:type="dot" id="id715025079" latexdraw:size="20.0" latexdraw:dotShape="*" latexdraw:position="175.0 220.0">
            <ellipse cx="175.0" cy="220.0" rx="9.23076923076923" ry="9.23076923076923" stroke-width="1.25" stroke-linecap="square" stroke="black" fill="black"/>
        </g>
        <g latexdraw:type="akinPoints" id="id86864602" latexdraw:pathType="CURVES" latexdraw:interval="2" latexdraw:points="182.0 216.0 211.0 215.0 221.0 214.0 267.0 213.0 276.0 212.0 280.0 211.0 288.0 210.0 292.0 209.0 296.0 208.0 305.0 207.0 314.0 206.0 336.0 205.0 348.0 204.0 358.0 203.0 362.0 202.0 367.0 201.0 368.0 200.0 373.0 198.0 375.0 197.0 377.0 196.0 379.0 195.0 382.0 194.0 384.0 193.0 387.0 192.0 388.0 191.0 390.0 190.0 392.0 189.0 394.0 188.0 396.0 187.0 398.0 186.0 399.0 185.0 400.0 184.0 403.0 183.0 404.0 182.0 405.0 181.0 407.0 179.0 409.0 178.0 410.0 177.0 411.0 175.0 413.0 174.0 414.0 173.0 417.0 172.0 419.0 171.0 420.0 170.0 422.0 169.0 423.0 167.0 425.0 166.0 427.0 165.0 428.0 164.0 430.0 162.0 431.0 161.0 433.0 160.0 435.0 158.0 437.0 157.0 438.0 156.0 440.0 154.0 442.0 152.0 444.0 150.0 447.0 146.0 448.0 144.0 450.0 142.0 451.0 140.0 453.0 138.0 454.0 136.0 456.0 134.0 458.0 131.0 460.0 130.0 462.0 128.0 464.0 126.0 465.0 125.0 467.0 123.0 468.0 121.0 470.0 120.0 471.0 118.0 472.0 117.0 473.0 116.0 474.0 115.0 475.0 113.0 476.0 112.0 477.0 111.0 478.0 109.0 480.0 108.0 481.0 107.0 482.0 106.0 483.0 104.0 484.0 103.0 486.0 102.0 487.0 101.0 488.0 99.0 489.0 98.0 491.0 96.0 493.0 94.0 494.0 93.0 495.0 91.0 497.0 89.0 498.0 88.0 500.0 87.0 501.0 85.0 502.0 84.0 503.0 83.0 504.0 82.0 506.0 81.0 508.0 80.0 509.0 79.0 510.0 78.0 511.0 77.0 514.0 76.0 515.0 75.0 516.0 74.0 517.0 73.0 520.0 72.0 525.0 71.0 527.0 70.0 529.0 69.0 534.0 68.0 540.0 67.0 ">
            <path d="M 182.0 216.0 L 201.5 215.0 C 211.25 214.5 234.75 213.5 248.5 213.0 C 262.25 212.5 279.0 211.5 282.0 211.0 C 285.0 210.5 290.0 209.5 292.0 209.0 C 294.0 208.5 300.5 207.5 305.0 207.0 C 309.5 206.5 322.5 205.5 331.0 205.0 C 339.5 204.5 351.5 203.5 355.0 203.0 C 358.5 202.5 363.5 201.5 365.0 201.0 C 366.5 200.5 369.75 199.25 371.5 198.5 C 373.25 197.75 376.0 196.5 377.0 196.0 C 378.0 195.5 380.25 194.5 381.5 194.0 C 382.75 193.5 385.0 192.5 386.0 192.0 C 387.0 191.5 389.0 190.5 390.0 190.0 C 391.0 189.5 393.0 188.5 394.0 188.0 C 395.0 187.5 396.75 186.5 397.5 186.0 C 398.25 185.5 400.0 184.5 401.0 184.0 C 402.0 183.5 403.5 182.5 404.0 182.0 C 404.5 181.5 406.0 180.25 407.0 179.5 C 408.0 178.75 409.5 177.25 410.0 176.5 C 410.5 175.75 411.75 174.5 412.5 174.0 C 413.25 173.5 415.25 172.5 416.5 172.0 C 417.75 171.5 419.75 170.5 420.5 170.0 C 421.25 169.5 422.75 168.25 423.5 167.5 C 424.25 166.75 425.75 165.5 426.5 165.0 C 427.25 164.5 428.75 163.25 429.5 162.5 C 430.25 161.75 432.0 160.25 433.0 159.5 C 434.0 158.75 435.75 157.5 436.5 157.0 C 437.25 156.5 439.0 155.0 440.0 154.0 C 441.0 153.0 443.25 150.5 444.5 149.0 C 445.75 147.5 447.75 145.0 448.5 144.0 C 449.25 143.0 450.75 141.0 451.5 140.0 C 452.25 139.0 453.75 137.0 454.5 136.0 C 455.25 135.0 457.0 133.0 458.0 132.0 C 459.0 131.0 461.0 129.0 462.0 128.0 C 463.0 127.0 464.75 125.25 465.5 124.5 C 466.25 123.75 467.75 122.25 468.5 121.5 C 469.25 120.75 470.5 119.25 471.0 118.5 C 471.5 117.75 472.5 116.5 473.0 116.0 C 473.5 115.5 474.5 114.25 475.0 113.5 C 475.5 112.75 476.5 111.25 477.0 110.5 C 477.5 109.75 478.75 108.5 479.5 108.0 C 480.25 107.5 481.5 106.25 482.0 105.5 C 482.5 104.75 483.75 103.5 484.5 103.0 C 485.25 102.5 486.5 101.25 487.0 100.5 C 487.5 99.75 488.75 98.25 489.5 97.5 C 490.25 96.75 491.75 95.25 492.5 94.5 C 493.25 93.75 494.75 92.0 495.5 91.0 C 496.25 90.0 497.75 88.5 498.5 88.0 C 499.25 87.5 500.5 86.25 501.0 85.5 C 501.5 84.75 502.5 83.5 503.0 83.0 C 503.5 82.5 505.0 81.5 506.0 81.0 C 507.0 80.5 508.5 79.5 509.0 79.0 C 509.5 78.5 511.0 77.5 512.0 77.0 C 513.0 76.5 514.5 75.5 515.0 75.0 C 515.5 74.5 517.0 73.5 518.0 73.0 C 519.0 72.5 521.75 71.5 523.5 71.0 C 525.25 70.5 528.75 69.5 530.5 69.0 C 532.25 68.5 535.5 67.75 540.0 67.0" stroke="black" stroke-width="2.0" fill="none" stroke-dasharray="8.819444444444445, 5.291666666666667"/>
        </g>
    </g>
    <defs/>
    <metadata>
        <latexdraw:metadata>
            <latexdraw:centreHoriz>false</latexdraw:centreHoriz>
            <latexdraw:positionVert/>
            <latexdraw:zoom>0.85</latexdraw:zoom>
            <latexdraw:vpx>0.509</latexdraw:vpx>
            <latexdraw:vpy>0.352</latexdraw:vpy>
        </latexdraw:metadata>
    </metadata>
</svg>
